<?xml version="1.0" encoding="utf-8"?>
<!-- Generator: Adobe Illustrator 27.3.1, SVG Export Plug-In . SVG Version: 6.00 Build 0)  -->
<svg version="1.1" id="Layer_1" xmlns="http://www.w3.org/2000/svg" xmlns:xlink="http://www.w3.org/1999/xlink" x="0px" y="0px"
	 viewBox="0 0 129 29" style="enable-background:new 0 0 129 29;" xml:space="preserve">
<style type="text/css">
	.st0{fill:#8A5AFF;}
	.st1{fill-rule:evenodd;clip-rule:evenodd;fill:#8A5AFF;}
</style>
<path class="st0" d="M89.1,6.2V23h-2.6l-9.3-11.4V23h-3.1V6.2h2.6L86,17.6V6.2H89.1z M93.3,10.2h3V23h-3V10.2z M94.8,8.1
	c-0.5,0-1-0.2-1.4-0.5c-0.4-0.4-0.6-0.8-0.6-1.3S93,5.4,93.4,5s0.8-0.5,1.4-0.5s1,0.2,1.4,0.5s0.6,0.7,0.6,1.2s-0.2,1-0.6,1.3
	C95.8,7.9,95.4,8.1,94.8,8.1z M105.5,17.5l-2.2,2.1V23h-3V5.2h3V16l6.2-5.8h3.6l-5.4,5.4l5.9,7.4H110L105.5,17.5z M127,16.7
	c0,0.2,0,0.5,0,0.9h-10.1c0.2,0.9,0.6,1.7,1.4,2.3c0.8,0.5,1.7,0.8,2.8,0.8c1.4,0,2.6-0.5,3.5-1.4l1.6,1.8c-0.6,0.7-1.3,1.2-2.2,1.6
	c-0.9,0.4-1.9,0.5-3,0.5c-1.4,0-2.6-0.3-3.7-0.8c-1.1-0.6-1.9-1.3-2.5-2.3s-0.9-2.1-0.9-3.4c0-1.2,0.3-2.4,0.8-3.4
	c0.6-1,1.4-1.8,2.4-2.4c1-0.6,2.1-0.8,3.4-0.8c1.2,0,2.4,0.3,3.3,0.8c1,0.5,1.8,1.3,2.3,2.3C126.7,14.2,127,15.4,127,16.7z
	 M120.5,12.4c-1,0-1.8,0.3-2.4,0.9c-0.7,0.6-1.1,1.3-1.2,2.3h7.3c-0.1-0.9-0.5-1.7-1.2-2.3C122.3,12.7,121.5,12.4,120.5,12.4z"/>
<path class="st1" d="M37.6,9.8c-12.5,3.5-23.5,6.3-24.6,6.3c-3,0-5.8-2.4-6.3-5.3C6.6,9.4,6.6,7.5,6.8,6.4l0.4-1.9l-1.6,2
	c-2.5,3.1-4.9,8.1-5.4,11.1c-1,5.9,3.8,9.8,10.2,8.4C13,25.4,61,4.6,61.8,3.7C62.5,3,58.9,3.9,37.6,9.8z"/>
</svg>
